REM DIRINDEX 1\2,1\4,1\5,1\6,1\7,1\3\8,1\3\9,1\3\10
REM DIRNAME folder01,folder02,folder03,folder04,folder05,folder06,folder07,folder08,folder09,folder10
TITLE ""
FILE "DB4500_5th_2A_41.mp3" MP3
  TRACK 01 AUDIO
    TITLE "8:cjc113_1540"
    INDEX 01 00:00:00
  TRACK 02 AUDIO
    TITLE "0:"
    INDEX 01 00:01:09
  TRACK 03 AUDIO
    TITLE "9:cjc113_1541"
    INDEX 01 00:01:30
  TRACK 04 AUDIO
    TITLE "0:"
    INDEX 01 00:02:42
  TRACK 05 AUDIO
    TITLE "10:cjc113_1542"
    INDEX 01 00:02:63
  TRACK 06 AUDIO
    TITLE "0:"
    INDEX 01 00:06:06
  TRACK 07 AUDIO
    TITLE "8:cjc113_1543"
    INDEX 01 00:06:49
  TRACK 08 AUDIO
    TITLE "0:"
    INDEX 01 00:07:62
  TRACK 09 AUDIO
    TITLE "9:cjc113_1544"
    INDEX 01 00:08:09
  TRACK 10 AUDIO
    TITLE "0:"
    INDEX 01 00:09:22
  TRACK 11 AUDIO
    TITLE "10:cjc113_1545"
    INDEX 01 00:09:45
  TRACK 12 AUDIO
    TITLE "0:"
    INDEX 01 00:12:69
  TRACK 13 AUDIO
    TITLE "8:cjc113_1546"
    INDEX 01 00:13:37
  TRACK 14 AUDIO
    TITLE "0:"
    INDEX 01 00:14:43
  TRACK 15 AUDIO
    TITLE "9:cjc113_1547"
    INDEX 01 00:14:66
  TRACK 16 AUDIO
    TITLE "0:"
    INDEX 01 00:16:02
  TRACK 17 AUDIO
    TITLE "10:cjc113_1548"
    INDEX 01 00:16:26
  TRACK 18 AUDIO
    TITLE "0:"
    INDEX 01 00:18:50
  TRACK 19 AUDIO
    TITLE "8:cjc113_1549"
    INDEX 01 00:19:22
  TRACK 20 AUDIO
    TITLE "0:"
    INDEX 01 00:20:36
  TRACK 21 AUDIO
    TITLE "9:cjc113_1550"
    INDEX 01 00:20:55
  TRACK 22 AUDIO
    TITLE "0:"
    INDEX 01 00:22:17
  TRACK 23 AUDIO
    TITLE "10:cjc113_1551"
    INDEX 01 00:22:40
  TRACK 24 AUDIO
    TITLE "0:"
    INDEX 01 00:26:07
  TRACK 25 AUDIO
    TITLE "8:cjc113_1552"
    INDEX 01 00:26:56
  TRACK 26 AUDIO
    TITLE "0:"
    INDEX 01 00:27:65
  TRACK 27 AUDIO
    TITLE "9:cjc113_1553"
    INDEX 01 00:28:13
  TRACK 28 AUDIO
    TITLE "0:"
    INDEX 01 00:29:33
  TRACK 29 AUDIO
    TITLE "10:cjc113_1554"
    INDEX 01 00:29:56
  TRACK 30 AUDIO
    TITLE "0:"
    INDEX 01 00:33:52
  TRACK 31 AUDIO
    TITLE "8:cjc113_1555"
    INDEX 01 00:34:20
  TRACK 32 AUDIO
    TITLE "0:"
    INDEX 01 00:37:46
  TRACK 33 AUDIO
    TITLE "9:cjc113_1556"
    INDEX 01 00:37:69
  TRACK 34 AUDIO
    TITLE "0:"
    INDEX 01 00:39:07
  TRACK 35 AUDIO
    TITLE "10:cjc113_1557"
    INDEX 01 00:39:31
  TRACK 36 AUDIO
    TITLE "0:"
    INDEX 01 00:42:18
  TRACK 37 AUDIO
    TITLE "8:cjc113_1558"
    INDEX 01 00:42:65
  TRACK 38 AUDIO
    TITLE "0:"
    INDEX 01 00:43:66
  TRACK 39 AUDIO
    TITLE "9:cjc113_1559"
    INDEX 01 00:44:11
  TRACK 40 AUDIO
    TITLE "0:"
    INDEX 01 00:45:24
  TRACK 41 AUDIO
    TITLE "10:cjc113_1560"
    INDEX 01 00:45:49
  TRACK 42 AUDIO
    TITLE "0:"
    INDEX 01 00:49:65
  TRACK 43 AUDIO
    TITLE "10:cjc113_1561"
    INDEX 01 00:50:70
  TRACK 44 AUDIO
    TITLE "0:"
    INDEX 01 00:54:64
  TRACK 45 AUDIO
    TITLE "8:cjc113_1562"
    INDEX 01 00:55:38
  TRACK 46 AUDIO
    TITLE "0:"
    INDEX 01 00:56:49
  TRACK 47 AUDIO
    TITLE "9:cjc113_1563"
    INDEX 01 00:56:71
  TRACK 48 AUDIO
    TITLE "0:"
    INDEX 01 00:58:66
  TRACK 49 AUDIO
    TITLE "10:cjc113_1564"
    INDEX 01 00:59:14
  TRACK 50 AUDIO
    TITLE "0:"
    INDEX 01 01:02:46
  TRACK 51 AUDIO
    TITLE "10:cjc113_1565"
    INDEX 01 01:02:67
  TRACK 52 AUDIO
    TITLE "0:"
    INDEX 01 01:06:47
  TRACK 53 AUDIO
    TITLE "8:cjc113_1566"
    INDEX 01 01:07:17
  TRACK 54 AUDIO
    TITLE "0:"
    INDEX 01 01:08:27
  TRACK 55 AUDIO
    TITLE "9:cjc113_1567"
    INDEX 01 01:08:52
  TRACK 56 AUDIO
    TITLE "0:"
    INDEX 01 01:09:65
  TRACK 57 AUDIO
    TITLE "10:cjc113_1568"
    INDEX 01 01:10:12
  TRACK 58 AUDIO
    TITLE "0:"
    INDEX 01 01:13:47
  TRACK 59 AUDIO
    TITLE "10:cjc113_1569"
    INDEX 01 01:14:14
  TRACK 60 AUDIO
    TITLE "0:"
    INDEX 01 01:17:63
  TRACK 61 AUDIO
    TITLE "8:cjc113_1570"
    INDEX 01 01:18:37
  TRACK 62 AUDIO
    TITLE "0:"
    INDEX 01 01:19:38
  TRACK 63 AUDIO
    TITLE "9:cjc113_1571"
    INDEX 01 01:19:62
  TRACK 64 AUDIO
    TITLE "0:"
    INDEX 01 01:21:02
  TRACK 65 AUDIO
    TITLE "10:cjc113_1572"
    INDEX 01 01:21:25
  TRACK 66 AUDIO
    TITLE "0:"
    INDEX 01 01:24:41
